<?xml version="1.0" encoding="utf-8"?>
<!-- Generator: Adobe Illustrator 20.0.0, SVG Export Plug-In . SVG Version: 6.00 Build 0)  -->
<svg version="1.1" id="Layer_1" xmlns="http://www.w3.org/2000/svg" xmlns:xlink="http://www.w3.org/1999/xlink" x="0px" y="0px"
	 viewBox="0 0 90 160" style="enable-background:new 0 0 90 160;" xml:space="preserve">
<g>
	<g>
		<path d="M36.7,0.5C19.7-0.4,10.3,18.9,8.9,33.2c-1.6,17.4,6.8,33.9,21.3,43.5c0-0.4,0.1-0.8,0.1-1.1C13.5,80,6,99.5,2,114.7
			c-4.5,16.8,8.5,30.8,22.5,38.2c13.5,7.2,29.8,8,43.4,0.5c14.1-7.7,21.6-22.7,20.1-38.7c-1.8-19.3-15.1-34.5-30.6-44.9
			c0,0.4-0.1,0.8-0.1,1.1c6.1-2.3,8.8-8.2,10.1-14.3c2.1-10,1.8-20.8,0.4-30.8c-1-7.2-2.7-15.1-8.6-20c-6.4-5.3-15.3-5.6-23.1-5.8
			c-0.8,0-0.8,1.2,0,1.3C42.5,1.6,50,1.7,55.9,5.3c7.3,4.4,9.3,12.9,10.4,20.8c1.1,8,1.3,16.2,0.5,24.2c-0.7,7.3-2.3,16.5-10.1,19.5
			c-0.5,0.2-0.6,0.8-0.1,1.1c12.4,8.3,23.6,19.7,28.1,34.3c4.6,15,1.6,31.8-10.6,42.3c-11.2,9.6-26.8,12.2-40.7,7.8
			C19.8,151,1.2,137.6,2.1,121.7c0.5-9,4.9-19,8.9-26.9c4.2-8.3,10.5-15.5,19.7-17.9c0.5-0.1,0.6-0.9,0.1-1.1
			C17.7,67,9.6,52.3,10,36.5C10.3,22,19.2,0.8,36.7,1.8C37.5,1.8,37.5,0.6,36.7,0.5L36.7,0.5z"/>
	</g>
</g>
<g>
	<g>
		<path d="M36.5,21.8c-7.5,12.1-1.7,25.9,6.9,35.7c0.5,0.6,1.4-0.3,0.9-0.9c-8.2-9.4-13.9-22.7-6.7-34.2
			C38,21.7,36.9,21.1,36.5,21.8L36.5,21.8z"/>
	</g>
</g>
<g>
	<g>
		<path d="M35.7,25.7c6.6,0,10.4,8.1,10.6,13.7c0.1,5.3-1.1,10.5-4.4,14.7c-0.5,0.6,0.4,1.5,0.9,0.9c4-5,5.7-12.4,4.5-18.8
			c-1-5.4-5.8-11.7-11.6-11.8C34.9,24.5,34.9,25.7,35.7,25.7L35.7,25.7z"/>
	</g>
</g>
<g>
	<g>
		<path d="M44.2,90.3c-6.7,7.4-11.2,17.6-9.1,27.7c1.9,9.1,8.3,16.5,16.8,20c0.7,0.3,1.1-0.9,0.3-1.2c-8.1-3.3-14.2-10.5-16-19.1
			c-2-9.7,2.4-19.4,8.8-26.5C45.7,90.6,44.8,89.7,44.2,90.3L44.2,90.3z"/>
	</g>
</g>
<g>
	<g>
		<path d="M42.9,94.1c16.5,4.9,17.5,31.6,5.7,41.8c-0.6,0.5,0.3,1.4,0.9,0.9c7.8-6.8,8.7-17.7,7.4-27.4c-1-8-5.9-14.2-13.7-16.5
			C42.5,92.7,42.1,93.9,42.9,94.1L42.9,94.1z"/>
	</g>
</g>
</svg>
