<svg id="Layer_1" data-name="Layer 1" xmlns="http://www.w3.org/2000/svg" viewBox="0 0 310 265"><defs><style>.cls-1{fill:#e6e7e8;stroke:#0f8140;}.cls-1,.cls-2{stroke-linecap:round;stroke-linejoin:bevel;stroke-width:3px;}.cls-2,.cls-3{fill:none;}.cls-2{stroke:#282a74;}</style></defs><title>Artboard 1</title><path class="cls-1" d="M293.78,154.28C247.09,158.77,214.1,129,214,106.5c-.1-22.15,31.61-51.55,77.24-48.89"/><path class="cls-1" d="M18.5,245.5a270.93,270.93,0,0,1,255.5,0"/><path class="cls-1" d="M18.5,11.18A349.73,349.73,0,0,0,166.5,35,347.17,347.17,0,0,0,274,11.18"/><circle class="cls-1" cx="83.89" cy="116.12" r="44.91"/><line class="cls-2" x1="57.5" y1="16.59" x2="71.81" y2="94.5"/><line class="cls-2" x1="121.24" y1="23.38" x2="99.79" y2="91.95"/><line class="cls-2" x1="71.81" y1="146.65" x2="62.58" y2="233.5"/><line class="cls-2" x1="97.88" y1="141.56" x2="143.04" y2="223.61"/><line class="cls-2" x1="228.9" y1="16.59" x2="268.34" y2="83.68"/><line class="cls-3" x1="291.24" y1="57.61" x2="293.78" y2="154.28"/><line class="cls-2" x1="119.51" y1="111.03" x2="228.9" y2="109.76"/><line class="cls-2" x1="258.8" y1="142.2" x2="202" y2="229.5"/></svg>