<?xml version="1.0" encoding="utf-8"?>
<!-- Generator: Adobe Illustrator 20.0.0, SVG Export Plug-In . SVG Version: 6.00 Build 0)  -->
<svg version="1.1" id="Layer_1" xmlns="http://www.w3.org/2000/svg" xmlns:xlink="http://www.w3.org/1999/xlink" x="0px" y="0px"
	 viewBox="0 0 420 140" style="enable-background:new 0 0 420 140;" xml:space="preserve">
<style type="text/css">
	.st0{fill:none;stroke:#3A53A4;stroke-width:3;stroke-linecap:round;stroke-linejoin:bevel;stroke-miterlimit:10;}
	.st1{fill:none;stroke:#010101;stroke-linecap:round;stroke-linejoin:bevel;stroke-miterlimit:10;}
	.st2{font-family:'MyriadPro-Regular';}
	.st3{font-size:20px;}
</style>
<path class="st0" d="M307.5,67.4L307.5,67.4c-19.3,0-35-14.1-35-31.5s15.7-31.5,35-31.5c18.2,0,33.4,12.6,34.9,29"/>
<path class="st0" d="M341.7,42.5L341.7,42.5c-3.5,14.5-17.7,24.9-34.2,24.9"/>
<path class="st0" d="M307.5,67.4L307.5,67.4c19.3,0,35,14.1,35,31.5c0,0.5,0,1,0,1.5"/>
<path class="st0" d="M340.4,109.5L340.4,109.5c-6.5,16.4-26.5,25-44.7,19.1c-18.2-5.8-27.7-23.9-21.2-40.3c5-12.6,18.2-21,33-21"/>
<path class="st0" d="M222,101L222,101c-3.3,20.7-24.6,35-47.5,32.1c-17.8-2.3-32.1-14.6-35.3-30.6"/>
<path class="st0" d="M177.4,57.9L177.4,57.9c22.6-1.4,42.4,13.5,44.7,33.8"/>
<path class="st0" d="M139.1,102.4L139.1,102.4c-1.3-21.4,15.1-40.3,38.3-44.6"/>
<path class="st0" d="M139.1,102.4L139.1,102.4C128.9,62.7,151.6,22.1,193,5.8"/>
<path class="st0" d="M24.6,54.9L24.6,54.9c21.5-5.9,44.3,5,50.9,24.4c6.6,19.4-5.6,39.9-27.1,45.8c-18.1,5-37.6-1.9-47.1-16.7"/>
<line class="st0" x1="3.5" y1="11.3" x2="74.1" y2="11.3"/>
<line class="st0" x1="24.6" y1="54.9" x2="46" y2="36"/>
<line class="st0" x1="51.4" y1="31.3" x2="74.1" y2="11.3"/>
<line class="st1" x1="70.2" y1="37.8" x2="55.2" y2="35.3"/>
<line class="st1" x1="55.2" y1="35.3" x2="58" y2="40.8"/>
<line class="st1" x1="55.2" y1="35.3" x2="60" y2="31.1"/>
<line class="st1" x1="360.2" y1="107.9" x2="345.2" y2="105.4"/>
<line class="st1" x1="345.2" y1="105.4" x2="348" y2="110.9"/>
<line class="st1" x1="345.2" y1="105.4" x2="350" y2="101.2"/>
<line class="st1" x1="359.7" y1="39.3" x2="344.7" y2="36.8"/>
<line class="st1" x1="344.7" y1="36.8" x2="347.5" y2="42.3"/>
<line class="st1" x1="344.7" y1="36.8" x2="349.5" y2="32.6"/>
<line class="st1" x1="204.7" y1="98.4" x2="219.7" y2="95.9"/>
<line class="st1" x1="219.7" y1="95.9" x2="216.9" y2="101.4"/>
<line class="st1" x1="219.7" y1="95.9" x2="214.9" y2="91.7"/>
<text transform="matrix(1 0 0 1 74.0971 43.7991)" class="st2 st3">Snip!</text>
<text transform="matrix(1 0 0 1 161.9647 106.6865)" class="st2 st3">Snip!</text>
<text transform="matrix(1 0 0 1 363.8559 43.7993)" class="st2 st3">Snip!</text>
<text transform="matrix(1 0 0 1 362.4375 115.2246)" class="st2 st3">Snip!</text>
</svg>
