<?xml version="1.0" encoding="utf-8"?>
<!-- Generator: Adobe Illustrator 20.0.0, SVG Export Plug-In . SVG Version: 6.00 Build 0)  -->
<svg version="1.1" id="Layer_1" xmlns="http://www.w3.org/2000/svg" xmlns:xlink="http://www.w3.org/1999/xlink" x="0px" y="0px"
	 viewBox="0 0 93.6 21.6" style="enable-background:new 0 0 93.6 21.6;" xml:space="preserve">
<style type="text/css">
	.st0{font-family:'Calibri';}
	.st1{font-size:11px;}
	.st2{font-family:'SymbolMT';}
</style>
<text transform="matrix(1 0 0 1 6.3704 7.549)" class="st0 st1">e</text>
<text transform="matrix(1 0 0 1 6.3705 19.7065)" class="st2 st1">8</text>
<text transform="matrix(0.866 0.5 -0.5 0.866 23.8479 5.8054)" class="st0 st1">e</text>
<text transform="matrix(0.5 0.866 -0.866 0.5 60.8448 3.7803)" class="st0 st1">e</text>
<text transform="matrix(0.7071 0.7071 -0.7071 0.7071 42.2124 4.7947)" class="st0 st1">e</text>
<text transform="matrix(0.1736 0.9848 -0.9848 0.1736 80.2488 14.758)" class="st2 st1">8</text>
<text transform="matrix(0.5 0.866 -0.866 0.5 60.9873 15.7061)" class="st2 st1">8</text>
<text transform="matrix(0.7071 0.7071 -0.7071 0.7071 42.1987 16.6848)" class="st2 st1">8</text>
<text transform="matrix(0.866 0.5 -0.5 0.866 23.719 17.7881)" class="st2 st1">8</text>
<text transform="matrix(0.3632 0.9317 -0.9317 0.3632 79.5444 3.2174)" class="st0 st1">e</text>
</svg>
