<?xml version="1.0" encoding="utf-8"?>
<!-- Generator: Adobe Illustrator 20.0.0, SVG Export Plug-In . SVG Version: 6.00 Build 0)  -->
<svg version="1.1" id="Layer_1" xmlns="http://www.w3.org/2000/svg" xmlns:xlink="http://www.w3.org/1999/xlink" x="0px" y="0px"
	 viewBox="0 0 235 30" style="enable-background:new 0 0 235 30;" xml:space="preserve">
<style type="text/css">
	.st0{fill:#FFFFFF;stroke:#808285;stroke-width:0.25;stroke-miterlimit:10;}
	.st1{fill:none;stroke:#808285;stroke-width:0.25;stroke-miterlimit:10;}
	.st2{fill:none;stroke:#000000;stroke-miterlimit:10;}
</style>
<g>
	<rect x="26" y="0.9" class="st0" width="16.1" height="28.6"/>
	<line class="st1" x1="26" y1="15.2" x2="42.1" y2="15.2"/>
	<line class="st2" x1="42.1" y1="29.4" x2="42.1" y2="0.9"/>
</g>
<g>
	<rect x="49.9" y="0.9" class="st0" width="16.1" height="28.6"/>
	<line class="st1" x1="49.9" y1="15.2" x2="66" y2="15.2"/>
	<line class="st2" x1="49.9" y1="0.9" x2="66" y2="0.9"/>
	<line class="st2" x1="66" y1="15.2" x2="66" y2="0.9"/>
	<line class="st2" x1="49.9" y1="15.2" x2="66" y2="15.2"/>
	<line class="st2" x1="49.9" y1="29.4" x2="49.9" y2="15.2"/>
	<line class="st2" x1="66" y1="29.4" x2="49.9" y2="29.4"/>
</g>
<g>
	<rect x="2.2" y="0.9" class="st0" width="16.1" height="28.6"/>
	<line class="st1" x1="2.2" y1="15.2" x2="18.3" y2="15.2"/>
	<line class="st2" x1="2.2" y1="0.9" x2="2.2" y2="29.4"/>
	<line class="st2" x1="18.3" y1="0.9" x2="2.2" y2="0.9"/>
	<line class="st2" x1="18.3" y1="29.4" x2="18.3" y2="0.9"/>
	<line class="st2" x1="2.2" y1="29.4" x2="18.3" y2="29.4"/>
</g>
<g>
	<rect x="73.7" y="0.9" class="st0" width="16.1" height="28.6"/>
	<line class="st1" x1="73.7" y1="15.2" x2="89.8" y2="15.2"/>
	<line class="st2" x1="73.7" y1="29.4" x2="89.8" y2="29.4"/>
	<line class="st2" x1="89.8" y1="0.9" x2="89.8" y2="29.4"/>
	<line class="st2" x1="73.7" y1="0.9" x2="89.8" y2="0.9"/>
	<line class="st2" x1="73.7" y1="15.2" x2="89.8" y2="15.2"/>
</g>
<g>
	<rect x="97.6" y="0.9" class="st0" width="16.1" height="28.6"/>
	<line class="st1" x1="97.6" y1="15.2" x2="113.7" y2="15.2"/>
	<line class="st2" x1="97.6" y1="0.9" x2="97.6" y2="15.2"/>
	<line class="st2" x1="113.7" y1="15.2" x2="97.6" y2="15.2"/>
	<line class="st2" x1="113.7" y1="29.4" x2="113.7" y2="0.9"/>
</g>
<g>
	<rect x="121.4" y="0.9" class="st0" width="16.1" height="28.6"/>
	<line class="st1" x1="121.4" y1="15.2" x2="137.5" y2="15.2"/>
	<line class="st2" x1="121.4" y1="0.9" x2="121.4" y2="15.2"/>
	<line class="st2" x1="121.4" y1="29.4" x2="137.5" y2="29.4"/>
	<line class="st2" x1="137.5" y1="15.2" x2="137.5" y2="29.4"/>
	<line class="st2" x1="137.5" y1="0.9" x2="121.4" y2="0.9"/>
	<line class="st2" x1="122.1" y1="15.2" x2="137.5" y2="15.2"/>
</g>
<g>
	<rect x="145.2" y="0.9" class="st0" width="16.1" height="28.6"/>
	<line class="st1" x1="145.2" y1="15.2" x2="161.4" y2="15.2"/>
	<line class="st2" x1="145.2" y1="0.9" x2="145.2" y2="29.4"/>
	<line class="st2" x1="161.4" y1="15.2" x2="145.2" y2="15.2"/>
	<line class="st2" x1="161.4" y1="29.4" x2="145.2" y2="29.4"/>
	<line class="st2" x1="161.4" y1="15.2" x2="161.4" y2="29.4"/>
</g>
<g>
	<rect x="169.1" y="0.9" class="st0" width="16.1" height="28.6"/>
	<line class="st1" x1="169.1" y1="15.2" x2="185.2" y2="15.2"/>
	<line class="st2" x1="185.2" y1="29.4" x2="185.2" y2="0.9"/>
	<line class="st2" x1="169.1" y1="0.9" x2="185.2" y2="0.9"/>
</g>
<g>
	<rect x="216.8" y="0.9" class="st0" width="16.1" height="28.6"/>
	<line class="st1" x1="216.8" y1="15.2" x2="232.9" y2="15.2"/>
	<line class="st2" x1="216.8" y1="0.9" x2="216.8" y2="15.2"/>
	<line class="st2" x1="232.9" y1="15.2" x2="216.8" y2="15.2"/>
	<line class="st2" x1="232.9" y1="0.9" x2="216.8" y2="0.9"/>
	<line class="st2" x1="232.9" y1="29.4" x2="232.9" y2="0.9"/>
</g>
<g>
	<rect x="192.9" y="0.9" class="st0" width="16.1" height="28.6"/>
	<line class="st1" x1="192.9" y1="15.2" x2="209.1" y2="15.2"/>
	<line class="st2" x1="192.9" y1="0.9" x2="192.9" y2="29.4"/>
	<line class="st2" x1="209.1" y1="29.4" x2="192.9" y2="29.4"/>
	<line class="st2" x1="209.1" y1="0.9" x2="209.1" y2="29.4"/>
	<line class="st2" x1="192.9" y1="0.9" x2="209.1" y2="0.9"/>
	<line class="st2" x1="209.1" y1="15.2" x2="192.9" y2="15.2"/>
</g>
</svg>
